<?xml version="1.0" encoding="UTF-8"?>
<svg width="28px" height="28px" viewBox="0 0 28 28" version="1.1" xmlns="http://www.w3.org/2000/svg" xmlns:xlink="http://www.w3.org/1999/xlink">
    <!-- Generator: Sketch 60.1 (88133) - https://sketch.com -->
    <title>calander</title>
    <desc>Created with Sketch.</desc>
    <g id="Page-1" stroke="none" stroke-width="1" fill="none" fill-rule="evenodd">
        <g id="Flight-reservation" transform="translate(-1050.000000, -691.000000)" fill="#000000" fill-rule="nonzero">
            <g id="calander" transform="translate(1050.000000, 691.000000)">
                <path d="M26.6,1.4 L25.6666667,1.4 L25.6666667,0.466666667 C25.6666667,0.186666667 25.48,0 25.2,0 C24.92,0 24.7333333,0.186666667 24.7333333,0.466666667 L24.7333333,1.4 L21.9333333,1.4 L21.9333333,0.466666667 C21.9333333,0.186666667 21.7466667,0 21.4666667,0 C21.1866667,0 21,0.186666667 21,0.466666667 L21,1.4 L18.2,1.4 L18.2,0.466666667 C18.2,0.186666667 18.0133333,0 17.7333333,0 C17.4533333,0 17.2666667,0.186666667 17.2666667,0.466666667 L17.2666667,1.4 L14.4666667,1.4 L14.4666667,0.466666667 C14.4666667,0.186666667 14.28,0 14,0 C13.72,0 13.5333333,0.186666667 13.5333333,0.466666667 L13.5333333,1.4 L10.7333333,1.4 L10.7333333,0.466666667 C10.7333333,0.186666667 10.5466667,0 10.2666667,0 C9.98666667,0 9.8,0.186666667 9.8,0.466666667 L9.8,1.4 L7,1.4 L7,0.466666667 C7,0.186666667 6.81333333,0 6.53333333,0 C6.25333333,0 6.06666667,0.186666667 6.06666667,0.466666667 L6.06666667,1.4 L3.26666667,1.4 L3.26666667,0.466666667 C3.26666667,0.186666667 3.08,0 2.8,0 C2.52,0 2.33333333,0.186666667 2.33333333,0.466666667 L2.33333333,1.4 L1.4,1.4 C0.606666667,1.4 0,2.00666667 0,2.8 L0,26.6 C0,27.3933333 0.606666667,28 1.4,28 L26.6,28 C27.3933333,28 28,27.3933333 28,26.6 L28,2.8 C28,2.00666667 27.3933333,1.4 26.6,1.4 Z M27.0666667,26.6 C27.0666667,26.88 26.88,27.0666667 26.6,27.0666667 L1.4,27.0666667 C1.12,27.0666667 0.933333333,26.88 0.933333333,26.6 L0.933333333,6.53333333 L23.3333333,6.53333333 C23.6133333,6.53333333 23.8,6.34666667 23.8,6.06666667 C23.8,5.78666667 23.6133333,5.6 23.3333333,5.6 L0.933333333,5.6 L0.933333333,2.8 C0.933333333,2.52 1.12,2.33333333 1.4,2.33333333 L26.6,2.33333333 C26.88,2.33333333 27.0666667,2.52 27.0666667,2.8 L27.0666667,26.6 Z" id="Shape"></path>
                <path d="M2.15141242,3.15 C2.00201774,3.3 1.95221952,3.5 2.05181597,3.7 C2.10161419,3.9 2.3008071,4 2.5,4 C2.6991929,4 2.89838581,3.9 2.94818403,3.7 C3.04778048,3.5 2.99798226,3.3 2.84858758,3.15 C2.64939468,2.95 2.35060532,2.95 2.15141242,3.15 Z" id="Path"></path>
                <path d="M6.15,3.15 C5.95,3.35 5.95,3.65 6.15,3.85 C6.35,4.05 6.65,4.05 6.85,3.85 C7.05,3.65 7.05,3.35 6.85,3.15 C6.65,2.95 6.35,2.95 6.15,3.15 Z" id="Path"></path>
                <path d="M9.15,3.15 C8.95,3.35 8.95,3.65 9.15,3.85 C9.35,4.05 9.65,4.05 9.85,3.85 C10.05,3.65 10.05,3.35 9.85,3.15 C9.65,2.95 9.35,2.95 9.15,3.15 Z" id="Path"></path>
                <path d="M14.15,3.15 C13.95,3.35 13.95,3.65 14.15,3.85 C14.35,4.05 14.65,4.05 14.85,3.85 C15.05,3.65 15.05,3.35 14.85,3.15 C14.65,2.95 14.35,2.95 14.15,3.15 Z" id="Path"></path>
                <path d="M18.15,3.15 C17.95,3.35 17.95,3.65 18.15,3.85 C18.35,4.05 18.65,4.05 18.85,3.85 C19.05,3.65 19.05,3.35 18.85,3.15 C18.65,2.95 18.35,2.95 18.15,3.15 Z" id="Path"></path>
                <path d="M21.15,3.15 C20.95,3.35 20.95,3.65 21.15,3.85 C21.35,4.05 21.65,4.05 21.85,3.85 C22.05,3.65 22.05,3.35 21.85,3.15 C21.65,2.95 21.35,2.95 21.15,3.15 Z" id="Path"></path>
                <path d="M25.15,3.15 C24.95,3.35 24.95,3.65 25.15,3.85 C25.35,4.05 25.65,4.05 25.85,3.85 C26.05,3.65 26.05,3.35 25.85,3.15 C25.65,2.95 25.35,2.95 25.15,3.15 Z" id="Path"></path>
                <path d="M25.0833333,9 L4.91666667,9 C4.4125,9 4,9.42352941 4,9.94117647 L4,24.0588235 C4,24.5764706 4.4125,25 4.91666667,25 L25.0833333,25 C25.5875,25 26,24.5764706 26,24.0588235 L26,9.94117647 C26,9.42352941 25.5875,9 25.0833333,9 Z M19.5833333,16.5294118 L15.4583333,16.5294118 L15.4583333,13.7058824 L19.5833333,13.7058824 L19.5833333,16.5294118 Z M20.5,13.7058824 L25.0833333,13.7058824 L25.0833333,16.5294118 L20.5,16.5294118 L20.5,13.7058824 Z M15.4583333,12.7647059 L15.4583333,9.94117647 L19.5833333,9.94117647 L19.5833333,12.7647059 L15.4583333,12.7647059 Z M14.5416667,12.7647059 L10.4166667,12.7647059 L10.4166667,9.94117647 L14.5416667,9.94117647 L14.5416667,12.7647059 Z M14.5416667,13.7058824 L14.5416667,16.5294118 L10.4166667,16.5294118 L10.4166667,13.7058824 L14.5416667,13.7058824 Z M9.5,16.5294118 L4.91666667,16.5294118 L4.91666667,13.7058824 L9.5,13.7058824 L9.5,16.5294118 Z M4.91666667,17.4705882 L9.5,17.4705882 L9.5,20.2941176 L4.91666667,20.2941176 L4.91666667,17.4705882 Z M10.4166667,17.4705882 L14.5416667,17.4705882 L14.5416667,20.2941176 L10.4166667,20.2941176 L10.4166667,17.4705882 Z M14.5416667,21.2352941 L14.5416667,24.0588235 L10.4166667,24.0588235 L10.4166667,21.2352941 L14.5416667,21.2352941 Z M15.4583333,21.2352941 L19.5833333,21.2352941 L19.5833333,24.0588235 L15.4583333,24.0588235 L15.4583333,21.2352941 Z M15.4583333,20.2941176 L15.4583333,17.4705882 L19.5833333,17.4705882 L19.5833333,20.2941176 L15.4583333,20.2941176 Z M20.5,17.4705882 L25.0833333,17.4705882 L25.0833333,20.2941176 L20.5,20.2941176 L20.5,17.4705882 Z M25.0833333,12.7647059 L20.5,12.7647059 L20.5,9.94117647 L25.0833333,9.94117647 L25.0833333,12.7647059 Z M9.5,9.94117647 L9.5,12.7647059 L4.91666667,12.7647059 L4.91666667,9.94117647 L9.5,9.94117647 Z M4.91666667,21.2352941 L9.5,21.2352941 L9.5,24.0588235 L4.91666667,24.0588235 L4.91666667,21.2352941 Z M20.5,24.0588235 L20.5,21.2352941 L25.0833333,21.2352941 L25.0833333,24.0588235 L20.5,24.0588235 Z" id="Shape"></path>
            </g>
        </g>
    </g>
</svg>