<?xml version="1.0" encoding="UTF-8"?>
<svg width="104px" height="41px" viewBox="0 0 104 41" version="1.1" xmlns="http://www.w3.org/2000/svg" xmlns:xlink="http://www.w3.org/1999/xlink">
    <!-- Generator: Sketch 60.1 (88133) - https://sketch.com -->
    <title>Group 5</title>
    <desc>Created with Sketch.</desc>
    <g id="Page-1" stroke="none" stroke-width="1" fill="none" fill-rule="evenodd">
        <g id="Flight-reservation" transform="translate(-153.000000, -78.000000)" fill="#11639C">
            <g id="Group-5" transform="translate(153.000000, 78.000000)">
                <path d="M37.9787925,30.1424543 L73.0307886,30.1424543 C67.3532247,35.6518185 60.500257,38.4413664 52.6211888,38.4413664 L24.9574044,38.4413664 C26.0745857,36.4671633 28.3446889,33.1483415 32.1807483,30.2687713 L32.1637427,30.2653419 C37.0443493,26.7230362 42.7291189,24.7159678 49.8878992,24.7159678 L104,24.7159678 L103.722146,23.20788 C103.3045,20.9376036 101.113372,16.6448263 95.8113723,16.6448263 L93.7900119,16.6448263 C92.7492117,14.9569798 89.678116,11 83.7636267,11 L77.183325,11 C77.8341494,11.9025092 78.3835167,12.7678663 78.8389208,13.5586336 L83.7636267,13.5586336 C87.2440097,13.5586336 90.4004216,15.3493627 92.2084913,19.2028883 L95.8113723,19.2028883 C98.5815553,19.2028883 99.970538,20.8618706 100.633468,22.1579058 L49.8878992,22.1579058 C38.7820908,22.1579058 31.8054722,26.8833616 27.7347932,30.6671557 C22.4938985,35.539505 21,41 21,41 L53.1970732,41 L53.1970732,40.9957132 C61.1709693,40.8688247 68.1559466,38.0958523 74.0211485,32.7402404 C75.0446549,31.8060091 78.8392091,27.5838208 78.8392091,27.5838208 L45.9379888,27.5838208 C42.8715048,28.0667975 40.2238196,29.0081735 37.9787925,30.1424543" id="Fill-12"></path>
                <path d="M27.2059539,27.3546068 C20.7315699,27.3546068 11.1055554,26.3569942 5.00655601,18.9434532 L78,18.9434532 C76.8738463,15.9890512 75.3545958,12.7102387 71.3427803,8.68020501 C67.401528,4.7204459 60.3912069,0 49.3787834,0 L20.8049899,0 C21.9648539,1.51879207 23.9489071,4.18435102 25.3207463,5.55341515 C28.9574629,9.18331384 35.571259,13.5099351 46.4262724,13.5099351 L73.1045738,13.5099351 C72.3912289,12.6847104 71.5470421,11.8112974 70.567157,10.9416133 L46.4262724,10.9416133 C36.4431568,10.9416133 30.4190058,7.02115056 27.1236778,3.73229884 C26.8122857,3.42136955 26.4400437,3.00230341 26.0726581,2.56803501 L49.3787834,2.56803501 C60.8685795,2.56803501 69.5124235,7.93615465 74.1081705,16.3754181 L0,16.3754181 C5.2968077,27.3680881 17.4353849,29.8403201 24.6431114,29.9148973 C26.1503633,29.9630856 30.1144701,30.0795406 30.2664523,29.9148973 C30.725827,29.417812 36.6205646,27.5209712 32.8641478,27.3546068 C32.5890372,27.3422729 28.7080635,27.4334865 27.2059539,27.3546068" id="Fill-13"></path>
                <path d="M88,18.4996887 C88,19.3279726 87.3285951,20 86.5,20 C85.6720274,20 85,19.3279726 85,18.4996887 C85,17.6720274 85.6720274,17 86.5,17 C87.3285951,17 88,17.6720274 88,18.4996887" id="Fill-14"></path>
            </g>
        </g>
    </g>
</svg>