<?xml version="1.0" encoding="UTF-8"?>
<svg width="38px" height="37px" viewBox="0 0 38 37" version="1.1" xmlns="http://www.w3.org/2000/svg" xmlns:xlink="http://www.w3.org/1999/xlink">
    <!-- Generator: Sketch 60.1 (88133) - https://sketch.com -->
    <title>Combined Shape</title>
    <desc>Created with Sketch.</desc>
    <g id="Page-1" stroke="none" stroke-width="1" fill="none" fill-rule="evenodd" stroke-linecap="round">
        <g id="Flight-reservation" transform="translate(-1361.000000, -486.000000)" stroke="#0AD1BD" stroke-width="2">
            <path d="M1383,494 L1366.22126,488 L1363,491.065625 L1376.81437,500 M1369,510.452783 L1362.91578,510.002628 C1362.13012,509.944728 1361.69402,510.85727 1362.2506,511.392237 L1366.00413,515 M1391,501 L1397,517.77874 L1393.93438,521 L1385,507.185625 M1374.45666,515 L1374.99685,521.084219 C1375.06633,521.869882 1373.97128,522.305984 1373.32932,521.749402 L1369,517.995869 M1378.95757,512.539203 L1365.59756,520.753129 C1364.07317,521.641457 1362.33955,519.957698 1363.25418,518.477151 L1371.71136,505.500591 L1388.41222,489.280099 C1390.41315,487.336725 1395.93854,486.234402 1397.36643,487.621223 C1398.78066,488.994772 1397.65935,494.374508 1395.65843,496.317882 L1378.95757,512.539203 Z" id="Combined-Shape"></path>
        </g>
    </g>
</svg>